<?xml version="1.0" encoding="UTF-8"?>
<svg version="1.1" xmlns="http://www.w3.org/2000/svg" width="128" height="128">
<path d="M0 0 C7.26 0 14.52 0 22 0 C23.08539062 2.24296875 24.17078125 4.4859375 25.2890625 6.796875 C26.36130746 9.01131937 27.4338156 11.22563608 28.50634766 13.43994141 C29.24164776 14.95836341 29.97668175 16.47691431 30.71142578 17.99560547 C35.0814034 27.02768746 39.4814993 36.04101587 44 45 C44.48879639 43.99211426 44.97759277 42.98422852 45.48120117 41.94580078 C47.31636913 38.16214032 49.15233432 34.37886716 50.98852539 30.59570312 C51.77910334 28.96657488 52.5694727 27.33734539 53.35961914 25.70800781 C61.77910412 8.34714695 61.77910412 8.34714695 66 0 C68.91691525 -0.05401695 71.83282724 -0.09368066 74.75 -0.125 C75.575 -0.14175781 76.4 -0.15851562 77.25 -0.17578125 C78.04921875 -0.18222656 78.8484375 -0.18867188 79.671875 -0.1953125 C80.4050293 -0.20578613 81.13818359 -0.21625977 81.89355469 -0.22705078 C84.35785038 0.03857219 85.90714552 0.68181154 88 2 C89.61328125 4.640625 89.61328125 4.640625 91.3125 8.25 C92.00911821 9.70244639 92.70716288 11.15420907 93.40625 12.60546875 C94.00566406 13.86109619 94.00566406 13.86109619 94.6171875 15.14208984 C96.20290366 18.41934856 97.83118205 21.67424457 99.46875 24.92578125 C99.77861847 25.54121796 100.08848694 26.15665466 100.40774536 26.79074097 C101.05000707 28.06630506 101.69226986 29.34186861 102.33453369 30.61743164 C107.4488437 40.78923663 112.50128915 50.99040839 117.4375 61.25 C118.13709839 62.69548218 118.13709839 62.69548218 118.85083008 64.17016602 C119.27001709 65.04729248 119.6892041 65.92441895 120.12109375 66.828125 C120.66914673 67.9713623 120.66914673 67.9713623 121.22827148 69.13769531 C122 71 122 71 122 73 C118.48173541 73.35106133 114.96794536 73.56218657 111.4375 73.75 C110.44685547 73.85054688 109.45621094 73.95109375 108.43554688 74.0546875 C105.23746175 74.18218591 103.0018431 74.14566797 100 73 C98.24829102 70.31933594 98.24829102 70.31933594 96.71875 67.03125 C95.21359136 63.70179441 95.21359136 63.70179441 93 61 C88.04642155 59.35314623 83.21886667 59.53928159 78.0625 59.75 C76.69730276 59.76199105 75.33204642 59.76855035 73.96679688 59.76953125 C70.64004663 59.79304185 67.32407644 59.87147795 64 60 C65.24312788 53.28324924 67.59086653 47.29244472 72 42 C76.35938457 40.51606984 79.3048829 40.73622938 84 41 C81.69 36.05 79.38 31.1 77 26 C70.38402716 38.26120475 64.18014156 50.68974302 58.2043457 63.27270508 C57.67156006 64.39185303 57.13877441 65.51100098 56.58984375 66.6640625 C56.11409912 67.66904785 55.63835449 68.6740332 55.14819336 69.70947266 C54 72 54 72 53 73 C50.77564909 73.17971577 48.54365946 73.26820321 46.3125 73.3125 C44.48138672 73.36857422 44.48138672 73.36857422 42.61328125 73.42578125 C38.21292294 72.90725254 36.3275369 71.91792309 33 69 C31.20105883 66.49221563 29.85545197 63.83028425 28.5 61.0625 C28.08693604 60.24910156 27.67387207 59.43570313 27.24829102 58.59765625 C25.80986208 55.7423184 24.40234033 52.87323145 23 50 C22.17024658 48.30593018 22.17024658 48.30593018 21.32373047 46.57763672 C17.72286745 39.21422236 14.16969077 31.82850866 10.63916016 24.43115234 C9.13402733 21.28055111 7.62110032 18.13384141 6.10546875 14.98828125 C5.27824564 13.26321268 4.45139184 11.53796694 3.625 9.8125 C3.24980225 9.03519531 2.87460449 8.25789063 2.48803711 7.45703125 C0 2.22993132 0 2.22993132 0 0 Z " fill="#03070D" transform="translate(6,27)"/>
<path d="M0 0 C5.28 0 10.56 0 16 0 C19.25 6.5 19.25 6.5 20.38232422 8.7668457 C22.62605633 13.25797102 24.87693824 17.74542912 27.1328125 22.23046875 C27.66874023 23.2978125 28.20466797 24.36515625 28.75683594 25.46484375 C29.82359386 27.58934655 30.89191737 29.71306405 31.96191406 31.8359375 C32.4565918 32.82207031 32.95126953 33.80820312 33.4609375 34.82421875 C33.90228027 35.70166748 34.34362305 36.57911621 34.79833984 37.4831543 C35.97783913 39.95358464 37.01324713 42.44721363 38 45 C38.99 45 39.98 45 41 45 C41.76183594 43.45892578 41.76183594 43.45892578 42.5390625 41.88671875 C46.53479565 33.83294081 50.61006029 25.84868009 55 18 C56.64630328 18.14042877 58.29204179 18.28749329 59.9375 18.4375 C61.31228516 18.55931641 61.31228516 18.55931641 62.71484375 18.68359375 C65 19 65 19 66 20 C68.35968428 30.0071069 62.04709738 38.96797935 57.5625 47.4375 C56.35625443 49.76264481 55.15562371 52.09062505 53.95555115 54.41896057 C53.21038835 55.85946891 52.4604602 57.29752468 51.70521545 58.73277283 C50.27018775 61.46639049 48.97834016 64.06497952 48 67 C45.93867858 67.10864945 43.87568679 67.18588321 41.8125 67.25 C40.66394531 67.29640625 39.51539063 67.3428125 38.33203125 67.390625 C34.10279854 66.89481812 33.02463636 66.00857933 30 63 C27.99240818 59.74900404 26.36668012 56.33859747 24.7265625 52.890625 C24.23972992 51.89101746 23.75289734 50.89140991 23.25131226 49.86151123 C21.69764578 46.6631282 20.16152773 43.4566456 18.625 40.25 C17.60001758 38.13880833 16.57398596 36.02812569 15.546875 33.91796875 C10.11226426 22.71265345 4.89743626 11.45034394 0 0 Z " fill="#010305" transform="translate(10,30)"/>
<path d="M0 0 C7.26 0 14.52 0 22 0 C23.08539062 2.24296875 24.17078125 4.4859375 25.2890625 6.796875 C26.36130746 9.01131937 27.4338156 11.22563608 28.50634766 13.43994141 C29.24164776 14.95836341 29.97668175 16.47691431 30.71142578 17.99560547 C35.0814034 27.02768746 39.4814993 36.04101587 44 45 C44.48879639 43.99211426 44.97759277 42.98422852 45.48120117 41.94580078 C47.31636913 38.16214032 49.15233432 34.37886716 50.98852539 30.59570312 C51.77910334 28.96657488 52.5694727 27.33734539 53.35961914 25.70800781 C61.77910412 8.34714695 61.77910412 8.34714695 66 0 C68.91691525 -0.05401695 71.83282724 -0.09368066 74.75 -0.125 C75.575 -0.14175781 76.4 -0.15851562 77.25 -0.17578125 C78.04921875 -0.18222656 78.8484375 -0.18867188 79.671875 -0.1953125 C80.4050293 -0.20578613 81.13818359 -0.21625977 81.89355469 -0.22705078 C84.35785038 0.03857219 85.90714552 0.68181154 88 2 C89.61328125 4.640625 89.61328125 4.640625 91.3125 8.25 C92.00911821 9.70244639 92.70716288 11.15420907 93.40625 12.60546875 C94.00566406 13.86109619 94.00566406 13.86109619 94.6171875 15.14208984 C96.20290366 18.41934856 97.83118205 21.67424457 99.46875 24.92578125 C99.77861847 25.54121796 100.08848694 26.15665466 100.40774536 26.79074097 C101.05000707 28.06630506 101.69226986 29.34186861 102.33453369 30.61743164 C107.4488437 40.78923663 112.50128915 50.99040839 117.4375 61.25 C118.13709839 62.69548218 118.13709839 62.69548218 118.85083008 64.17016602 C119.27001709 65.04729248 119.6892041 65.92441895 120.12109375 66.828125 C120.66914673 67.9713623 120.66914673 67.9713623 121.22827148 69.13769531 C122 71 122 71 122 73 C118.48173541 73.35106133 114.96794536 73.56218657 111.4375 73.75 C110.44685547 73.85054688 109.45621094 73.95109375 108.43554688 74.0546875 C105.23746175 74.18218591 103.0018431 74.14566797 100 73 C98.24829102 70.31933594 98.24829102 70.31933594 96.71875 67.03125 C95.21359136 63.70179441 95.21359136 63.70179441 93 61 C88.04642155 59.35314623 83.21886667 59.53928159 78.0625 59.75 C76.69730276 59.76199105 75.33204642 59.76855035 73.96679688 59.76953125 C70.64004663 59.79304185 67.32407644 59.87147795 64 60 C65.24312788 53.28324924 67.59086653 47.29244472 72 42 C76.35938457 40.51606984 79.3048829 40.73622938 84 41 C81.69 36.05 79.38 31.1 77 26 C70.38402716 38.26120475 64.18014156 50.68974302 58.2043457 63.27270508 C57.67156006 64.39185303 57.13877441 65.51100098 56.58984375 66.6640625 C56.11409912 67.66904785 55.63835449 68.6740332 55.14819336 69.70947266 C54 72 54 72 53 73 C50.77564909 73.17971577 48.54365946 73.26820321 46.3125 73.3125 C44.48138672 73.36857422 44.48138672 73.36857422 42.61328125 73.42578125 C38.21292294 72.90725254 36.3275369 71.91792309 33 69 C31.20105883 66.49221563 29.85545197 63.83028425 28.5 61.0625 C28.08693604 60.24910156 27.67387207 59.43570313 27.24829102 58.59765625 C25.80986208 55.7423184 24.40234033 52.87323145 23 50 C22.17024658 48.30593018 22.17024658 48.30593018 21.32373047 46.57763672 C17.72286745 39.21422236 14.16969077 31.82850866 10.63916016 24.43115234 C9.13402733 21.28055111 7.62110032 18.13384141 6.10546875 14.98828125 C5.27824564 13.26321268 4.45139184 11.53796694 3.625 9.8125 C3.24980225 9.03519531 2.87460449 8.25789063 2.48803711 7.45703125 C0 2.22993132 0 2.22993132 0 0 Z M4 3 C8.99593031 14.37345122 14.20011532 25.59814837 19.82788086 36.67382812 C22.21672199 41.38711663 24.5392672 46.11636297 26.74609375 50.91796875 C27.18832275 51.87517822 27.63055176 52.8323877 28.08618164 53.81860352 C28.92308269 55.64095198 29.74971989 57.46806206 30.56420898 59.30053711 C32.68521812 63.90335724 34.37441138 67.49190306 39 70 C42.34994801 70.48079519 42.34994801 70.48079519 45.8125 70.25 C46.97394531 70.21390625 48.13539062 70.1778125 49.33203125 70.140625 C50.21246094 70.09421875 51.09289063 70.0478125 52 70 C52.27038086 69.42894531 52.54076172 68.85789062 52.81933594 68.26953125 C55.64984179 62.3000822 58.50222415 56.34146021 61.36962891 50.38964844 C62.46187549 48.11879616 63.55005583 45.84598385 64.63427734 43.57128906 C66.22122987 40.24883039 67.82708328 36.93613719 69.4375 33.625 C69.93282227 32.57957031 70.42814453 31.53414062 70.93847656 30.45703125 C71.64762207 29.01263672 71.64762207 29.01263672 72.37109375 27.5390625 C72.9887561 26.25829834 72.9887561 26.25829834 73.61889648 24.95166016 C75 23 75 23 77.16430664 22.21630859 C77.77008545 22.14492676 78.37586426 22.07354492 79 22 C79.38285156 23.22589844 79.38285156 23.22589844 79.7734375 24.4765625 C81.18981697 28.5452704 82.87505953 32.44119073 84.625 36.375 C85.11226562 37.47908203 85.11226562 37.47908203 85.609375 38.60546875 C86.40384503 40.40470969 87.20158771 42.20250496 88 44 C86.97519531 43.95617187 85.95039062 43.91234375 84.89453125 43.8671875 C80.74059096 43.82510929 77.06091209 44.03229329 73 45 C69.42294624 48.70953723 68 52.88996228 68 58 C68.78648926 57.97268799 69.57297852 57.94537598 70.38330078 57.91723633 C73.96503114 57.82509245 77.54213207 57.8179952 81.125 57.8125 C82.3625 57.76802734 83.6 57.72355469 84.875 57.67773438 C88.5581749 57.7074374 91.49765099 57.84102649 95 59 C98.08037134 62.53104099 99.25264442 65.55480421 101 70 C106.61 70 112.22 70 118 70 C112.82350465 58.18295001 107.36530067 46.5553582 101.53442383 35.04638672 C98.99305825 30.02055483 96.49977551 24.98222964 94.1171875 19.87890625 C93.43837524 18.4256897 93.43837524 18.4256897 92.74584961 16.94311523 C91.89301389 15.1061526 91.04711981 13.26594632 90.20922852 11.42211914 C89.82951904 10.60477295 89.44980957 9.78742676 89.05859375 8.9453125 C88.73173584 8.22875488 88.40487793 7.51219727 88.06811523 6.77392578 C86.97717517 4.67662658 86.97717517 4.67662658 84 3 C81.23344676 2.85754103 78.57346694 2.81230555 75.8125 2.875 C74.68811523 2.88853516 74.68811523 2.88853516 73.54101562 2.90234375 C71.69387346 2.92587422 69.84689588 2.96174439 68 3 C61.88491489 14.36795649 56.07172178 25.83612133 50.58081055 37.51977539 C50.14164307 38.45168701 49.70247559 39.38359863 49.25 40.34375 C48.66992188 41.58415039 48.66992188 41.58415039 48.078125 42.84960938 C47 45 47 45 45 48 C44.01 48 43.02 48 42 48 C40.18660455 44.22959668 38.37435683 40.45864293 36.5625 36.6875 C36.02133545 35.56150391 35.4801709 34.43550781 34.92260742 33.27539062 C32.34446125 27.90561395 29.77338581 22.53293855 27.234375 17.14453125 C26.82243896 16.27030518 26.41050293 15.3960791 25.98608398 14.49536133 C25.21544748 12.85677682 24.44666949 11.21731671 23.67993164 9.5769043 C22.20775111 6.04796038 22.20775111 6.04796038 20 3 C17.30345146 2.92680379 14.63308542 2.90757463 11.9375 2.9375 C10.79958008 2.94426758 10.79958008 2.94426758 9.63867188 2.95117188 C7.75908129 2.9629932 5.87953101 2.98092922 4 3 Z " fill="#25528E" transform="translate(6,27)"/>
<path d="M0 0 C0.72509766 -0.02900391 1.45019531 -0.05800781 2.19726562 -0.08789062 C5.50360164 -0.12721576 7.61977475 -0.14908943 10.23779297 1.97949219 C13.92652167 6.39340296 16.04845583 11.70727285 18.5 16.875 C19.06267578 18.02419922 19.62535156 19.17339844 20.20507812 20.35742188 C20.73166016 21.45763672 21.25824219 22.55785156 21.80078125 23.69140625 C22.52454956 25.20069702 22.52454956 25.20069702 23.26293945 26.74047852 C24.1875 29.3125 24.1875 29.3125 23.1875 32.3125 C21.2075 32.3125 19.2275 32.3125 17.1875 32.3125 C16.1975 30.3325 15.2075 28.3525 14.1875 26.3125 C13.1975 27.6325 12.2075 28.9525 11.1875 30.3125 C11.1875 27.0125 11.1875 23.7125 11.1875 20.3125 C10.5275 20.3125 9.8675 20.3125 9.1875 20.3125 C9.1875 19.6525 9.1875 18.9925 9.1875 18.3125 C8.5275 18.3125 7.8675 18.3125 7.1875 18.3125 C7.1875 17.6525 7.1875 16.9925 7.1875 16.3125 C4.06964887 16.95894661 4.06964887 16.95894661 3.1875 19.3125 C2.55328125 19.43496094 1.9190625 19.55742188 1.265625 19.68359375 C-0.96525983 20.12207449 -0.96525983 20.12207449 -2.078125 22.16015625 C-2.40296875 22.89105469 -2.7278125 23.62195313 -3.0625 24.375 C-3.39765625 25.10847656 -3.7328125 25.84195313 -4.078125 26.59765625 C-4.32046875 27.16355469 -4.5628125 27.72945312 -4.8125 28.3125 C-5.1425 28.3125 -5.4725 28.3125 -5.8125 28.3125 C-6.1425 25.6725 -6.4725 23.0325 -6.8125 20.3125 C-10.1125 19.6525 -13.4125 18.9925 -16.8125 18.3125 C-15.50260411 15.49876007 -14.1897225 12.6864835 -12.875 9.875 C-12.50181641 9.07255859 -12.12863281 8.27011719 -11.74414062 7.44335938 C-11.20756836 6.29770508 -11.20756836 6.29770508 -10.66015625 5.12890625 C-10.33023682 4.42193604 -10.00031738 3.71496582 -9.66040039 2.98657227 C-7.65442123 -0.97398031 -3.96565465 0.05204271 0 0 Z " fill="#050C17" transform="translate(81.8125,29.6875)"/>
<path d="M0 0 C2.97 0.33 5.94 0.66 9 1 C8.78472931 9.56114994 5.94377863 13.89250947 0.07495117 19.64575195 C-3.55907319 23 -3.55907319 23 -7 23 C-8.11083984 21.28417969 -8.11083984 21.28417969 -9 19 C-8.40087891 16.80175781 -8.40087891 16.80175781 -7.2265625 14.453125 C-6.8140625 13.60878906 -6.4015625 12.76445313 -5.9765625 11.89453125 C-5.30753906 10.58548828 -5.30753906 10.58548828 -4.625 9.25 C-4.18671875 8.36183594 -3.7484375 7.47367188 -3.296875 6.55859375 C-2.21204513 4.36535074 -1.10783492 2.18171321 0 0 Z " fill="#020408" transform="translate(63,51)"/>
<path d="M0 0 C5.94 0 11.88 0 18 0 C18 0.33 18 0.66 18 1 C12.39 1 6.78 1 1 1 C1.33 1.99 1.66 2.98 2 4 C0.88451342 6.66854804 -0.29491802 9.16889302 -1.62109375 11.73046875 C-1.99984146 12.48088943 -2.37858917 13.23131012 -2.76881409 14.00447083 C-3.98241915 16.40366015 -5.20973589 18.79553057 -6.4375 21.1875 C-7.26197942 22.81138639 -8.08555877 24.4357301 -8.90820312 26.06054688 C-10.92839043 30.04574923 -12.96090396 34.02444169 -15 38 C-15.99 37.67 -16.98 37.34 -18 37 C-12.10669745 24.6114167 -6.19039694 12.24322951 0 0 Z " fill="#214371" transform="translate(72,27)"/>
<path d="M0 0 C3.08301416 -0.11644156 6.16546123 -0.18732432 9.25 -0.25 C10.12269531 -0.28351562 10.99539062 -0.31703125 11.89453125 -0.3515625 C18.27233303 -0.44893352 18.27233303 -0.44893352 21.3046875 1.421875 C23.84962657 5.29205883 25.89410742 9.31741471 27.875 13.5 C28.30296875 14.35464844 28.7309375 15.20929687 29.171875 16.08984375 C29.56632812 16.91613281 29.96078125 17.74242188 30.3671875 18.59375 C30.72925293 19.34333984 31.09131836 20.09292969 31.46435547 20.86523438 C32 23 32 23 31.10205078 25.27539062 C30.73837402 25.84451172 30.37469727 26.41363281 30 27 C29.67725098 26.30849854 29.35450195 25.61699707 29.02197266 24.90454102 C27.56274033 21.78747176 26.09401287 18.67497102 24.625 15.5625 C24.11710937 14.47388672 23.60921875 13.38527344 23.0859375 12.26367188 C22.59609375 11.22919922 22.10625 10.19472656 21.6015625 9.12890625 C20.92601318 7.69140015 20.92601318 7.69140015 20.23681641 6.22485352 C19.19838775 3.86400182 19.19838775 3.86400182 17 3 C14.12089412 2.76725791 11.25853505 2.58027243 8.375 2.4375 C7.57320313 2.39431641 6.77140625 2.35113281 5.9453125 2.30664062 C3.9637489 2.20048543 1.98189729 2.09973145 0 2 C0 1.34 0 0.68 0 0 Z " fill="#26589B" transform="translate(73,28)"/>
<path d="M0 0 C0.66 0.99 1.32 1.98 2 3 C0.86563637 7.76979406 -1.39720805 12.03714494 -3.625 16.375 C-3.94984375 17.01566406 -4.2746875 17.65632813 -4.609375 18.31640625 C-5.40257407 19.87947501 -6.20077031 21.44000622 -7 23 C-11.29 22.67 -15.58 22.34 -20 22 C-20 21.67 -20 21.34 -20 21 C-16.37 21 -12.74 21 -9 21 C-8.67 19.35 -8.34 17.7 -8 16 C-7.15209961 13.96362305 -7.15209961 13.96362305 -6.15234375 12.01171875 C-5.79462891 11.30595703 -5.43691406 10.60019531 -5.06835938 9.87304688 C-4.69517578 9.15181641 -4.32199219 8.43058594 -3.9375 7.6875 C-3.56044922 6.94693359 -3.18339844 6.20636719 -2.79492188 5.44335938 C-1.86871843 3.62612478 -0.93509371 1.81267596 0 0 Z " fill="#214A81" transform="translate(67,76)"/>
<path d="M0 0 C0.33 0 0.66 0 1 0 C1.28875 1.11375 1.5775 2.2275 1.875 3.375 C2.69241329 7.00291092 2.69241329 7.00291092 5 9 C5.33 7.35 5.66 5.7 6 4 C9.05001831 7.66002197 13 13.07851471 13 18 C11.68 18 10.36 18 9 18 C9 17.34 9 16.68 9 16 C8.34 16 7.68 16 7 16 C5.63636792 14.02053408 4.30581356 12.0180755 3 10 C2.13375 9.2884375 2.13375 9.2884375 1.25 8.5625 C-0.8302364 5.9622045 -0.18046859 3.18827837 0 0 Z " fill="#0A192E" transform="translate(89,34)"/>
<path d="M0 0 C2.97 0.33 5.94 0.66 9 1 C8.78472931 9.56114994 5.94377863 13.89250947 0.07495117 19.64575195 C-3.55907319 23 -3.55907319 23 -7 23 C-7 22.34 -7 21.68 -7 21 C-6.29875 20.5875 -5.5975 20.175 -4.875 19.75 C2.12304348 15.49032136 4.99860378 10.90024824 7 3 C4.36 3 1.72 3 -1 3 C-0.67 2.01 -0.34 1.02 0 0 Z " fill="#0C1F39" transform="translate(63,51)"/>
<path d="M0 0 C0.99 0.33 1.98 0.66 3 1 C2.67 3.31 2.34 5.62 2 8 C1.34 8 0.68 8 0 8 C0 8.66 0 9.32 0 10 C-1.98 10 -3.96 10 -6 10 C-4.79157144 5.56909529 -3.48331435 3.01887244 0 0 Z " fill="#081222" transform="translate(62,57)"/>
<path d="M0 0 C2 0 2 0 4.5 2.4375 C5.325 3.283125 6.15 4.12875 7 5 C9.70183055 6.35091528 12.11808206 6.33858058 15.125 6.5625 C16.76855469 6.68818359 16.76855469 6.68818359 18.4453125 6.81640625 C19.28835937 6.87699219 20.13140625 6.93757813 21 7 C21 7.66 21 8.32 21 9 C7.05108862 9.68789152 7.05108862 9.68789152 3.1875 7.3125 C0.80652603 4.79547037 0.19030575 3.42550358 0 0 Z " fill="#2A5790" transform="translate(38,91)"/>
<path d="M0 0 C3.84375 1.796875 3.84375 1.796875 5.25 3.625 C6.35953628 7.13853155 6.12256679 10.32299618 6 14 C3.5625 12.625 3.5625 12.625 1 10 C0.25976342 6.67414834 0.07139201 3.40085565 0 0 Z " fill="#03060D" transform="translate(89,30)"/>
<path d="M0 0 C0.66 1.32 1.32 2.64 2 4 C0.99212459 6.60515164 -0.03627093 8.82847536 -1.375 11.25 C-1.71789063 11.8996875 -2.06078125 12.549375 -2.4140625 13.21875 C-3.26183672 14.82010131 -4.12908679 16.41111444 -5 18 C-5.99 17.67 -6.98 17.34 -8 17 C-5.36 11.39 -2.72 5.78 0 0 Z " fill="#22497F" transform="translate(62,47)"/>
<path d="M0 0 C3.63 0 7.26 0 11 0 C11 1.32 11 2.64 11 4 C7.04 4 3.08 4 -1 4 C-0.67 2.68 -0.34 1.36 0 0 Z " fill="#010204" transform="translate(69,40)"/>
<path d="M0 0 C3.95602172 4.85511756 5.29212746 8.71925967 5 15 C0.89916809 9.78075939 -0.26060773 6.77580101 0 0 Z " fill="#234C83" transform="translate(27,66)"/>
<path d="M0 0 C4.5743073 2.28715365 4.5743073 2.28715365 6.375 5.875 C6.73335938 6.55304687 7.09171875 7.23109375 7.4609375 7.9296875 C8 10 8 10 6 14 C4.02 9.38 2.04 4.76 0 0 Z " fill="#295B9C" transform="translate(97,41)"/>
<path d="M0 0 C3.96 0.33 7.92 0.66 12 1 C11.67 2.98 11.34 4.96 11 7 C10.67 5.68 10.34 4.36 10 3 C6.37 3 2.74 3 -1 3 C-0.67 2.01 -0.34 1.02 0 0 Z " fill="#0E2341" transform="translate(70,37)"/>
<path d="M0 0 C3 1 3 1 4.75 3.8125 C5.98589446 6.96403086 6.28222189 7.96929372 5 11 C2.77174356 8.77174356 2.30760631 7.34238372 1.375 4.375 C1.11460938 3.55773438 0.85421875 2.74046875 0.5859375 1.8984375 C0.39257812 1.27195313 0.19921875 0.64546875 0 0 Z " fill="#2A5B9B" transform="translate(30,37)"/>
<path d="M0 0 C0.99 0 1.98 0 3 0 C1.125 5.75 1.125 5.75 0 8 C-0.99 7.67 -1.98 7.34 -3 7 C-2.01 4.69 -1.02 2.38 0 0 Z " fill="#26518B" transform="translate(57,57)"/>
<path d="M0 0 C0.66 0 1.32 0 2 0 C2.99 2.64 3.98 5.28 5 8 C4.01 8.33 3.02 8.66 2 9 C0.50178941 5.62902617 0 3.79557881 0 0 Z " fill="#265088" transform="translate(27,29)"/>
<path d="M0 0 C0.66 0 1.32 0 2 0 C3.06775224 1.96466413 4.06553465 3.96855359 5 6 C4.67 6.66 4.34 7.32 4 8 C3.34 8 2.68 8 2 8 C0.23537317 4.91190305 0 3.76687864 0 0 Z " fill="#244E84" transform="translate(111,67)"/>
<path d="M0 0 C0.99 0 1.98 0 3 0 C3 0.66 3 1.32 3 2 C2.34 2 1.68 2 1 2 C0.67 3.65 0.34 5.3 0 7 C-0.66 7 -1.32 7 -2 7 C-1.125 1.125 -1.125 1.125 0 0 Z " fill="#295CA0" transform="translate(81,49)"/>
<path d="M0 0 C0.66 1.32 1.32 2.64 2 4 C0.68 5.32 -0.64 6.64 -2 8 C-2.33 7.34 -2.66 6.68 -3 6 C-2.06553465 3.96855359 -1.06775224 1.96466413 0 0 Z " fill="#254B7C" transform="translate(74,76)"/>
<path d="M0 0 C1 3 1 3 0.0625 5.1875 C-0.4634375 6.0846875 -0.4634375 6.0846875 -1 7 C-1.66 7 -2.32 7 -3 7 C-2.625 4.0625 -2.625 4.0625 -2 1 C-1.34 0.67 -0.68 0.34 0 0 Z " fill="#275697" transform="translate(66,42)"/>
</svg>
